<svg viewBox="0 0 264 88" xmlns="http://www.w3.org/2000/svg"><g clip-rule="evenodd" fill-rule="evenodd"><path d="m67 59.5v3.8c-6.3.8-9.2 5.8-10 9.7 2.2-2.8 5.6-5.1 10-5.1v3.6l6-5.9z"/><path d="m13 29v-5h2v3h3v2zm0-14h5v2h-3v3h-2zm18 0v5h-2v-3h-3v-2zm0 14h-5v-2h3v-3h2zm31-5v5h-2v-3h-3v-2zm0-4h-5v-2h3v-3h2zm8 0v-5h2v3h3v2zm0 4h5v2h-3v3h-2zm-49.4 42-5.7-5.7 1.4-1.4 5.7 5.7 5.7-5.7 1.4 1.4-5.7 5.7 5.7 5.7-1.4 1.4-5.7-5.7-5.7 5.7-1.4-1.4zm91.2-1-1.8-1.5 3-3.5h-10v-2h10l-3-3.5 1.8-1.5 5.2 6zm40.4 0 1.8-1.5-3-3.5h10v-2h-10l3-3.5-1.8-1.5-5.2 6z"/><path d="m161 28.5-3.2-3.2-1.4 1.4 3.2 3.2z"/></g><path d="m152.5 27c3 0 5.5-2.5 5.5-5.5s-2.5-5.5-5.5-5.5-5.5 2.5-5.5 5.5 2.5 5.5 5.5 5.5z" fill="none" stroke="#000" stroke-width="1.5"/><path clip-rule="evenodd" d="m150 21h5v1h-5z" fill-rule="evenodd"/><path clip-rule="evenodd" d="m117 28.5-1.4 1.4-3.2-3.2 1.4-1.4z" fill-rule="evenodd"/><path d="m108.5 27c3 0 5.5-2.5 5.5-5.5s-2.5-5.5-5.5-5.5-5.5 2.5-5.5 5.5 2.5 5.5 5.5 5.5z" fill="none" stroke="#000" stroke-width="1.5"/><path clip-rule="evenodd" d="m106 21h5v1h-5z" fill-rule="evenodd"/><path clip-rule="evenodd" d="m109 19-.1 5h-1l.1-5z" fill-rule="evenodd"/></svg>